<svg xmlns="http://www.w3.org/2000/svg" width="32" height="31" viewBox="0 0 32 31"><path fill="#95e1d3" d="M32 5.87a5.87 5.87 0 0 0-9.5-4.61 15.73 15.73 0 0 1 8.24 8.24c.79-1 1.26-2.25 1.26-3.63zM16 1.5A14.5 14.5 0 0 0 5.45 25.93l-2.01 2.01a1.5 1.5 0 1 0 2.12 2.12l2.16-2.16a14.47 14.47 0 0 0 16.57-.01l2.18 2.18a1.48 1.48 0 1 0 2.1-2.1l-2.03-2.03A14.5 14.5 0 0 0 16 1.5zM27.5 16a11.5 11.5 0 1 1-23 0 11.5 11.5 0 0 1 23 0zm-4 0c0-.83-.67-1.5-1.5-1.5h-4.5V8a1.5 1.5 0 1 0-3 0v8c0 .83.67 1.5 1.5 1.5h6c.83 0 1.5-.67 1.5-1.5zM1.29 9.71A6 6 0 0 1 9.7 1.29a16.02 16.02 0 0 0-8.42 8.42z"/></svg>