<svg xmlns="http://www.w3.org/2000/svg" width="32" height="32" viewBox="0 0 32 32"><path fill="#95e1d3" d="M31.06 25.89L16.6 31.88c-.18.08-.38.12-.59.12-.21 0-.41-.04-.6-.12L.95 25.89A1.5 1.5 0 0 1 0 24.5v-23A1.5 1.5 0 0 1 2.07.11v.01h.02L16 5.88 29.91.12h.01V.11A1.5 1.5 0 0 1 32 1.5l.01 23a1.5 1.5 0 0 1-.94 1.39zM14.5 8.5L3 3.74V23.5l11.5 4.76zM29 3.74L17.5 8.5v19.76L29 23.5zm-9.12 6.89l5.5-2.5a1.5 1.5 0 0 1 1.24 2.74l-5.5 2.5a1.5 1.5 0 0 1-1.24-2.74zm0 5.5l5.5-2.5a1.5 1.5 0 0 1 1.24 2.74l-5.5 2.5v-.01a1.5 1.5 0 0 1-1.24-2.73zm0 5.5l5.5-2.5a1.5 1.5 0 0 1 1.24 2.74l-5.5 2.5a1.5 1.5 0 0 1-1.24-2.74zM6 8c.22 0 .43.05.62.13l5.5 2.5a1.5 1.5 0 1 1-1.24 2.74l-5.5-2.5A1.5 1.5 0 0 1 6 8zm0 5.5c.22 0 .43.05.62.13l5.5 2.5a1.5 1.5 0 1 1-1.24 2.73v.01l-5.5-2.5A1.5 1.5 0 0 1 6 13.5zm-1.5 7c0 .61.36 1.13.88 1.37l5.5 2.5a1.5 1.5 0 0 0 1.24-2.74l-5.5-2.5A1.5 1.5 0 0 0 4.5 20.5z"/></svg>