<svg xmlns="http://www.w3.org/2000/svg" width="16" height="17" viewBox="0 0 16 17"><path fill="#95e1d3" d="M15.84 6.4a7.9 7.9 0 0 0-3.37-5.02A7.88 7.88 0 0 0 6.4.18 7.92 7.92 0 0 0 0 8.01a8.1 8.1 0 0 0 1.37 4.48A8.1 8.1 0 0 0 8 16.02a7.9 7.9 0 0 0 3.11-.63 7.88 7.88 0 0 0 3.52-2.9 8.22 8.22 0 0 0 1.2-2.86 8.02 8.02 0 0 0 0-3.23zm-1.01 1.55c-.1-.02-2.41-.52-4.76-.23l-.15-.35-.45-.99c2.7-1.1 3.8-2.69 3.8-2.7a6.8 6.8 0 0 1 1.56 4.27zm-2.32-5.06c-.01.02-.99 1.51-3.57 2.47A34.35 34.35 0 0 0 6.4 1.38a6.81 6.81 0 0 1 6.12 1.51zM6.36 1.38zm-.02.01l.02-.01-.02.01zm-1.25.45c.09.12 1.35 1.83 2.53 3.93-3.28.87-6.13.84-6.3.84a6.83 6.83 0 0 1 3.77-4.77zM1.17 8.01V7.8c.12 0 3.5.08 7.02-.97.2.38.38.77.55 1.16l-.27.08a10.8 10.8 0 0 0-5.55 4.5 6.8 6.8 0 0 1-1.75-4.56zm1.75 4.57zM8 14.85a6.8 6.8 0 0 1-4.2-1.45s1.31-2.86 5.36-4.27l.05-.01c.96 2.5 1.36 4.59 1.46 5.19-.82.34-1.72.54-2.67.54zm3.82-1.17c-.07-.41-.44-2.42-1.33-4.88 2.2-.35 4.11.25 4.26.3a6.83 6.83 0 0 1-2.93 4.58z"/></svg>