<svg xmlns="http://www.w3.org/2000/svg" width="16" height="15" viewBox="0 0 16 15"><path fill="#95e1d3" d="M16 3.72v-1h-2.5V.28h-1v2.44H10v1h2.5v2.44h1V3.72zM7.92 1.25l.95-.99H4.65C2.75.26.98 1.76.98 3.4c0 1.66 1.28 3.05 3.2 3.05.14 0 .27.02.4.01-.12.24-.21.52-.21.79 0 .46.25.84.57 1.15l-.73.01C1.87 8.41 0 9.88 0 11.4c0 1.5 2.04 2.62 4.38 2.62 2.68 0 4.12-1.68 4.12-3.17 0-1.2-.33-1.92-1.44-2.7-.39-.26-1.12-.91-1.12-1.29 0-.44.13-.66.81-1.18C7.45 5.14 8 4.45 8 3.58c0-1.05-.52-1.84-1.4-2.33zM5.71 8.97c.88.6 1.5.93 1.68 1.62.04.14.06.28.06.43 0 1.21-.8 2.03-3.08 2.03-1.62 0-2.78-.89-2.78-2.1 0-1.18 1.45-2.17 3.07-2.15.37 0 .73.06 1.05.17zM4.8 6.08c-1.09-.03-2.12-1.2-2.3-2.6-.2-1.4.53-2.47 1.62-2.44 1.09.03 2.17 1.15 2.36 2.56.18 1.4-.6 2.51-1.68 2.48z"/></svg>