<svg xmlns="http://www.w3.org/2000/svg" width="16" height="17" viewBox="0 0 16 17"><path fill="#95e1d3" d="M14 16.01H2a2 2 0 0 1-2-1.99v-12A2 2 0 0 1 2 .01h12a2 2 0 0 1 2 2.01v12a2 2 0 0 1-2 1.99zM8 4.91a3.1 3.1 0 0 0-2.81 1.8l-.02.04-.08.2-.03.1a2.75 2.75 0 0 0-.13.54l-.01.09-.02.33a3.1 3.1 0 1 0 6.18-.33l-.01-.09a3.06 3.06 0 0 0-.07-.33l-.06-.21c0-.04-.02-.07-.03-.1a2.08 2.08 0 0 0-.1-.24A3.1 3.1 0 0 0 8 4.91zm6.2-2.29a.8.8 0 0 0-.8-.8h-1.6a.8.8 0 0 0-.8.8v1.6c0 .44.36.79.8.79h1.6a.8.8 0 0 0 .8-.79zm0 4.09h-1.47a4.9 4.9 0 1 1-9.45 0H1.8v6.71c0 .44.36.79.8.79h10.8a.8.8 0 0 0 .8-.79z"/></svg>