<svg xmlns="http://www.w3.org/2000/svg" width="26" height="26" viewBox="0 0 26 26"><path fill="#f38181" d="M22.7 25.8H3.5a3.2 3.2 0 0 1-3.2-3.2V3.4A3.2 3.2 0 0 1 3.5.2h19.2a3.2 3.2 0 0 1 3.2 3.2v19.2a3.2 3.2 0 0 1-3.2 3.2zM13.1 8.04c-2 0-3.71 1.18-4.5 2.88l-.03.05a6.4 6.4 0 0 0-.12.33l-.06.15-.1.34c0 .05-.03.11-.04.16l-.06.37-.02.15a4.96 4.96 0 1 0 9.86 0l-.02-.15-.06-.37a4.72 4.72 0 0 0-.05-.16c-.02-.11-.05-.23-.09-.34l-.06-.15a6.4 6.4 0 0 0-.13-.33c0-.01 0-.03-.02-.05a4.95 4.95 0 0 0-4.5-2.88zm9.92-3.68c0-.71-.57-1.28-1.28-1.28h-2.56c-.7 0-1.28.57-1.28 1.28v2.56c0 .71.57 1.28 1.28 1.28h2.56c.7 0 1.28-.57 1.28-1.28zm0 6.56h-2.36a7.83 7.83 0 0 1-7.56 9.92 7.84 7.84 0 0 1-7.56-9.92H3.18v10.72c0 .71.57 1.28 1.28 1.28h17.28c.7 0 1.28-.57 1.28-1.28z"/></svg>