<svg xmlns="http://www.w3.org/2000/svg" width="30" height="30" viewBox="0 0 30 30"><path fill="#95e1d3" d="M30 24c0 .65-.42 1.2-1 1.41v1.68A1.5 1.5 0 1 1 27.09 29h-1.68a1.5 1.5 0 0 1-2.82 0h-1.68a1.5 1.5 0 0 1-2.82 0h-1.68a1.5 1.5 0 0 1-2.82 0h-1.68a1.5 1.5 0 0 1-2.82 0H7.41a1.5 1.5 0 0 1-2.82 0H2.91A1.5 1.5 0 1 1 1 27.09v-1.68A1.5 1.5 0 0 1 0 24c0-.65.42-1.2 1-1.41v-1.68a1.5 1.5 0 0 1-1-1.41c0-.65.42-1.2 1-1.41v-1.68A1.5 1.5 0 0 1 0 15c0-.65.42-1.2 1-1.41v-1.68a1.5 1.5 0 0 1-1-1.41c0-.65.42-1.2 1-1.41V7.41A1.5 1.5 0 0 1 0 6c0-.65.42-1.2 1-1.41V2.91A1.5 1.5 0 1 1 2.9 1h1.7a1.5 1.5 0 0 1 2.8 0h1.7a1.5 1.5 0 0 1 2.8 0h1.7a1.5 1.5 0 0 1 2.8 0h1.7c.2-.58.75-1 1.4-1 .65 0 1.2.42 1.4 1h1.7a1.5 1.5 0 0 1 2.81 0h1.68A1.5 1.5 0 1 1 29 2.91v1.68c.58.21 1 .76 1 1.41 0 .65-.42 1.2-1 1.41v1.68c.58.21 1 .76 1 1.41 0 .65-.42 1.2-1 1.41v1.68c.58.21 1 .76 1 1.41 0 .65-.42 1.2-1 1.41v1.68c.58.21 1 .76 1 1.41 0 .65-.42 1.2-1 1.41v1.68c.58.21 1 .76 1 1.41zM26 4H4v22h22zM13 20l7-8.5 4.5 7v6h-19l6-6zm0-10a3 3 0 1 0-6 0 3 3 0 0 0 6 0z"/></svg>