<svg xmlns="http://www.w3.org/2000/svg" width="13" height="17" viewBox="0 0 13 17"><path fill="#95e1d3" d="M5.84 10.42l-.4 1.6c-.13.53-.25 1.06-.44 1.55-.33.8-.74 1.57-1.28 2.2-.36.42-.28.25-.4.23-.07-.02-.08-.1-.1-.22-.08-.64-.02-1.37 0-2.09.05-.81.22-1.49.38-2.17l.9-3.85c.01-.08.07-.23.05-.28a3.93 3.93 0 0 1-.27-1.06c-.04-.43-.01-.84.09-1.21.17-.66.57-1.25 1.18-1.46.4-.14.82-.08 1.08.08.28.16.46.41.55.78.09.38.02.84-.05 1.18-.17.76-.39 1.33-.59 2.07-.1.36-.2.74-.12 1.13.09.36.28.61.53.8.27.19.58.3 1.02.28.77-.03 1.3-.52 1.66-.98a5.8 5.8 0 0 0 1.04-2.93c.05-.38.08-.82.05-1.26-.06-.8-.31-1.44-.7-1.95A3.3 3.3 0 0 0 8.43 1.8a5.04 5.04 0 0 0-2.34-.15 4.15 4.15 0 0 0-3.07 2.21 4.41 4.41 0 0 0-.53 2.13c0 .66.17 1.17.43 1.56.08.13.2.23.28.38.12.2-.01.5-.07.72-.07.27-.08.64-.39.64-.12 0-.29-.09-.4-.15-.81-.45-1.3-1.27-1.5-2.33a5.6 5.6 0 0 1 .58-3.64A5.8 5.8 0 0 1 3.59.94 6.6 6.6 0 0 1 6.03.1c.32-.05.65-.06 1-.08 1.05-.05 2 .19 2.7.5.76.34 1.36.79 1.87 1.35.52.57.9 1.23 1.15 2.06.12.44.25.9.25 1.43 0 .54-.12 1.01-.2 1.48a5.83 5.83 0 0 1-2.4 4.04 4.39 4.39 0 0 1-2.5.68c-.49-.03-.9-.17-1.23-.36a2.01 2.01 0 0 1-.83-.78z"/></svg>