<svg xmlns="http://www.w3.org/2000/svg" width="21" height="26" viewBox="0 0 21 26"><path fill="#f38181" d="M9.05 16.85l-.64 2.56c-.21.85-.4 1.7-.71 2.47a12.7 12.7 0 0 1-2.05 3.53c-.57.66-.45.4-.62.36-.14-.03-.15-.16-.17-.34-.14-1.02-.05-2.2 0-3.34.06-1.31.34-2.39.6-3.47l1.43-6.17c.03-.14.12-.37.09-.44a6.47 6.47 0 0 1-.43-1.7c-.07-.7-.02-1.35.14-1.95.28-1.06.91-1.99 1.9-2.34a2.2 2.2 0 0 1 1.73.14c.43.25.73.66.86 1.24.15.62.04 1.35-.08 1.89-.26 1.22-.61 2.14-.93 3.31-.16.59-.34 1.19-.2 1.81.14.58.45.98.86 1.28.42.31.92.48 1.62.46 1.23-.05 2.08-.83 2.65-1.57a9.3 9.3 0 0 0 1.68-4.69c.06-.61.11-1.32.07-2.01a5.47 5.47 0 0 0-1.13-3.12 5.28 5.28 0 0 0-2.51-1.71 8.29 8.29 0 0 0-3.75-.23 6.61 6.61 0 0 0-4.91 3.53c-.5.95-.84 2.05-.84 3.41 0 1.05.26 1.86.68 2.5.13.2.32.37.45.6.19.32-.02.81-.11 1.16-.11.43-.13 1.01-.62 1.02-.2.01-.47-.14-.64-.24-1.3-.72-2.1-2.03-2.42-3.74a8.88 8.88 0 0 1 0-3.23 9.22 9.22 0 0 1 4.4-6.15A10.4 10.4 0 0 1 9.34.34c.5-.08 1.03-.11 1.6-.13a9.63 9.63 0 0 1 4.33.8 8.86 8.86 0 0 1 2.98 2.15 8.14 8.14 0 0 1 1.84 3.31c.2.69.4 1.43.4 2.29 0 .85-.19 1.61-.31 2.37-.48 2.82-1.82 5.14-3.84 6.45a6.4 6.4 0 0 1-1.76.81c-.66.2-1.42.34-2.24.29a4.64 4.64 0 0 1-1.98-.58 3.3 3.3 0 0 1-1.32-1.25z"/></svg>