<svg xmlns="http://www.w3.org/2000/svg" width="63" height="61" viewBox="0 0 63 61"><path fill="#95e1d3" d="M60 36h-2v5c0 .2-.02.41-.06.6-.03.14-.08.27-.12.4l-.06.17c-.04.11-.11.22-.17.32l-.1.19c-.1.14-.21.27-.34.4l-.03.04a3 3 0 0 1-2.08.87L55 44a3 3 0 0 1-2.12-.88L45.76 36H18a3 3 0 0 1-3-3V3a3 3 0 0 1 3-3h42a3 3 0 0 1 3 3v30a3 3 0 0 1-3 3zm-42 3a6 6 0 0 1-6-6V12H3a3 3 0 0 0-3 3v34a3 3 0 0 0 3 3h4v6c0 .21.02.41.06.6.03.14.08.27.12.4l.06.17c.04.11.11.21.17.32.04.06.06.13.1.18.1.15.21.28.34.41l.03.04a3 3 0 0 0 2.08.87L10 61a3 3 0 0 0 2.12-.88L20.24 52H52a3 3 0 0 0 3-3v-2a6 6 0 0 1-4.15-1.68L44.5 39z"/></svg>