<svg xmlns="http://www.w3.org/2000/svg" width="16" height="14" viewBox="0 0 16 14"><path fill="#95e1d3" d="M10.88.52a3.34 3.34 0 0 1 2.6 1.03 5.48 5.48 0 0 0 2.09-.79A3.35 3.35 0 0 1 14.5 2.3c-.1.08-.22.2-.36.25v.01c.71-.01 1.3-.33 1.86-.5-.3.47-.69.94-1.11 1.28l-.52.41c.01.75 0 1.47-.15 2.11-.82 3.68-2.99 6.18-6.43 7.25a9.78 9.78 0 0 1-4.64.2c-.7-.18-1.34-.37-1.93-.63-.33-.15-.64-.3-.93-.48L0 12.02c.32.01.7.1 1.05.04.32-.05.64-.04.94-.1a7 7 0 0 0 1.97-.71c.27-.16.69-.35.89-.59a3.32 3.32 0 0 1-3.06-2.27c.32.03 1.24.12 1.46-.07-.4-.02-.8-.25-1.07-.43A3.15 3.15 0 0 1 .63 5.08l.34.16c.21.09.43.14.69.19.1.03.32.09.45.04h-.02c-.16-.19-.43-.32-.6-.52a3.36 3.36 0 0 1-.38-3.84l.01.01c.07.14.2.23.3.35a9.68 9.68 0 0 0 6.46 3.06c-.15-.43-.1-1.12.02-1.54A3.21 3.21 0 0 1 10.48.56l.4-.04z"/></svg>