<svg xmlns="http://www.w3.org/2000/svg" width="26" height="22" viewBox="0 0 26 22"><path fill="#f38181" d="M17.51.6a5.4 5.4 0 0 1 4.15 1.65A8.66 8.66 0 0 0 25.01.98a5.27 5.27 0 0 1-1.7 2.47c-.18.14-.36.32-.58.41v.01c1.14-.01 2.08-.52 2.97-.8v.01c-.47.74-1.1 1.5-1.78 2.04l-.82.65c.01 1.21-.02 2.36-.24 3.38-1.32 5.89-4.8 9.89-10.3 11.61-1.97.61-5.16.87-7.43.31-1.12-.28-2.13-.6-3.08-1.01a11.5 11.5 0 0 1-1.49-.77l-.46-.28c.51.01 1.1.15 1.68.06.51-.08 1.02-.06 1.5-.16 1.19-.26 2.24-.61 3.15-1.14.44-.26 1.1-.56 1.42-.93a5.3 5.3 0 0 1-4.9-3.64c.52.05 2 .19 2.35-.11a3.77 3.77 0 0 1-1.71-.69A5.03 5.03 0 0 1 1.1 7.91l.54.25c.34.15.7.23 1.1.31.18.04.52.14.72.06h-.03c-.26-.3-.7-.51-.96-.84A5.36 5.36 0 0 1 1.3 2.93a6 6 0 0 1 .57-1.37l.02.01c.1.22.33.37.48.55.45.56 1 1.06 1.56 1.5a15.43 15.43 0 0 0 8.78 3.41 4.9 4.9 0 0 1 .02-2.47A5.16 5.16 0 0 1 16.87.68l.64-.08z"/></svg>