<svg xmlns="http://www.w3.org/2000/svg" width="33" height="24" viewBox="0 0 33 24"><path fill="#fff" d="M32.95 22.51a1 1 0 0 1-1 .99h-7.4c.55-.13.96-.62.96-1.21 0 0 0-4.5-3.3-6.14-1.4-.7-1.5-.57-2.2-.73l.02-1.95s-.77-.59-1.01-2.43c-.49.13-.64-.57-.67-1.02-.03-.43-.28-1.78.3-1.66-.11-.9-.2-1.71-.16-2.14.15-1.52 1.61-3.1 3.86-3.21 2.65.11 3.7 1.69 3.85 3.2.04.44-.05 1.25-.17 2.15.59-.12.33 1.23.3 1.66-.03.45-.19 1.15-.67 1.01-.24 1.84-1.01 2.43-1.01 2.43l.02 1.94s.49.28 2.54 1.13c2.06.85 1.42.22 3.1 1.05 2.64 1.31 2.64 4.92 2.64 4.92zM15.23 14.6l-.02-2.14s.84-.64 1.1-2.67c.54.16.71-.61.74-1.11.04-.47.32-1.95-.33-1.82.13-.99.24-1.89.19-2.36-.16-1.66-1.32-3.4-4.23-3.52-2.47.12-4.08 1.86-4.24 3.52-.05.48.05 1.37.18 2.36-.65-.13-.37 1.35-.34 1.83.03.49.2 1.26.73 1.11.27 2.02 1.11 2.67 1.11 2.67l-.02 2.15s-.53.33-2.8 1.26c-2.26.94-1.55.2-3.39 1.11C1 18.43 1 22.41 1 22.41c0 .6.49 1.09 1.1 1.09h21.14c.6 0 1.09-.49 1.09-1.09 0 0 0-3.98-2.91-5.42-1.85-.91-1.14-.21-3.4-1.15-2.26-.93-2.8-1.24-2.8-1.24z"/></svg>