<svg xmlns="http://www.w3.org/2000/svg" width="20" height="12" viewBox="0 0 20 12"><path fill="#95e1d3" d="M19.71 5.78v.07c-.03.16-.1.3-.21.41-.2.25-.43.48-.65.71a16.69 16.69 0 0 1-4.12 3.12c-.98.51-2.02.92-3.1 1.12-1.18.22-2.37.2-3.54-.05a13.55 13.55 0 0 1-5.5-2.86A15.05 15.05 0 0 1 .46 6.26a.78.78 0 0 1 0-1.05 16.65 16.65 0 0 1 4.77-3.82C6.23.88 7.27.47 8.35.27a8.84 8.84 0 0 1 3.55.05c2.04.44 3.88 1.55 5.5 2.86.75.61 1.49 1.28 2.1 2.03a.8.8 0 0 1 .21.44v.05l.01.04v.04zM9.99 1.94a3.64 3.64 0 1 0 0 7.29 3.64 3.64 0 0 0 0-7.29zm1.82 3.65a1.83 1.83 0 1 0-3.65 0 1.83 1.83 0 0 0 3.65 0z"/></svg>